<?xml version="1.0" encoding="utf-8"?>
<!-- Generator: Adobe Illustrator 21.1.0, SVG Export Plug-In . SVG Version: 6.00 Build 0)  -->
<svg version="1.1" id="Layer_1" xmlns="http://www.w3.org/2000/svg" xmlns:xlink="http://www.w3.org/1999/xlink" x="0px" y="0px"
	 viewBox="0 0 11.5 17.2" style="enable-background:new 0 0 11.5 17.2;" xml:space="preserve">
<style type="text/css">
	.st0{fill:#3988F7;}
</style>
<path id="XMLID_18_" class="st0" d="M0.3,5.3c-0.3,0.3-0.3,1,0,1.4c0.3,0.3,1,0.3,1.4,0l3.1-3.1v12.6c0,0.5,0.3,1,1,1
	c0.5,0,0.9-0.3,0.9-1V3.4l3.1,3.1c0.3,0.3,1,0.3,1.4,0c0.2-0.2,0.3-0.3,0.3-0.7c0-0.2-0.2-0.5-0.3-0.7L6.3,0.3c-0.3-0.3-1-0.3-1.4,0
	L0.3,5.3z"/>
</svg>
